# xmcd
#
# Track frame offsets:
#	150
#	13486
#	25097
#	39635
#	50591
#	66773
#	83027
#	95560
#	112502
#	129242
#	141758
#	153470
#	164987
#	183170
#	200483
#	215337
#	234757
#	248795
#	266474
#
# Disc length: 3694 seconds
#
# Revision: 1
# Processed by: cddbd v1.5.2PL0 Copyright (c) Steve Scherf et al.
# Submitted via: CDex 1.51
#
DISCID=000e6c13
DTITLE=Amy Winehouse - Back to Black Extended Version
DYEAR=2008
DGENRE=Blues
TTITLE0=Amy Winehouse - Monkey Man
TTITLE1=Amy Winehouse - You're Wondering Now
TTITLE2=Amy Winehouse - Just Friends
TTITLE3=Amy Winehouse - to Know Him is to Love Him (Napsterlive)
TTITLE4=Amy Winehouse - Rehab (Album Version)
TTITLE5=Amy Winehouse - Hey Little Rich Girl .Feat Zalon Ade
TTITLE6=Amy Winehouse - Addicted
TTITLE7=Amy Winehouse - Love is A Losing Game (Original Demo)
TTITLE8=Amy Winehouse - Wake Up Alone
TTITLE9=Amy Winehouse - He Can Only Hold Her
TTITLE10=Amy Winehouse - Love is A Losing Game
TTITLE11=Amy Winehouse - Me Mr Jones
TTITLE12=Amy Winehouse - Back to Black
TTITLE13=Amy Winehouse - Cupid (Deluxe Edition Version)
TTITLE14=Amy Winehouse - Some Unholy War (Down Tempo)
TTITLE15=Amy Winehouse - You Know I'm No Good
TTITLE16=Amy Winehouse - Tears Dry on Their Own
TTITLE17=Amy Winehouse - Valerie
TTITLE18=Amy Winehouse - Some Unholy War
EXTD=YEAR: 2008
EXTT0=
EXTT1=
EXTT2=
EXTT3=
EXTT4=
EXTT5=
EXTT6=
EXTT7=
EXTT8=
EXTT9=
EXTT10=
EXTT11=
EXTT12=
EXTT13=
EXTT14=
EXTT15=
EXTT16=
EXTT17=
EXTT18=
PLAYORDER=
